<?xml version="1.0" encoding="UTF-8" standalone="no"?>
<svg width="108px" height="108px" viewBox="0 0 108 108" version="1.1" xmlns="http://www.w3.org/2000/svg" xmlns:xlink="http://www.w3.org/1999/xlink" xmlns:sketch="http://www.bohemiancoding.com/sketch/ns">
    <!-- Generator: Sketch 3.3.2 (12043) - http://www.bohemiancoding.com/sketch -->
    <title>g286</title>
    <desc>Created with Sketch.</desc>
    <defs></defs>
    <g id="Page-1" stroke="none" stroke-width="1" fill="none" fill-rule="evenodd" sketch:type="MSPage">
        <g id="g286" sketch:type="MSLayerGroup" transform="translate(2.000000, 2.000000)">
            <path d="M100.438,42 L90.336,42 C85.098,42 82.474,35.666 86.178,31.962 L93.322,24.82 C94.714,23.428 94.714,21.174 93.322,19.782 L84.216,10.678 C82.826,9.286 80.572,9.286 79.18,10.678 L72.036,17.82 C68.332,21.524 62,18.902 62,13.664 L62,3.56 C62,1.594 60.406,0 58.438,0 L45.562,0 C43.594,0 42,1.594 42,3.56 L42,13.664 C42,18.902 35.668,21.524 31.964,17.82 L24.82,10.678 C23.428,9.286 21.174,9.286 19.784,10.678 L10.678,19.782 C9.286,21.174 9.286,23.428 10.678,24.82 L17.822,31.962 C21.526,35.666 18.902,42 13.664,42 L3.562,42 C1.594,42 0,43.594 0,45.56 L0,58.438 C0,60.406 1.594,62 3.562,62 L13.664,62 C18.902,62 21.526,68.332 17.822,72.036 L10.678,79.18 C9.286,80.57 9.286,82.826 10.678,84.216 L19.784,93.322 C21.174,94.714 23.428,94.714 24.82,93.322 L31.964,86.178 C35.668,82.474 42,85.098 42,90.336 L42,100.438 C42,102.406 43.594,104 45.562,104 L58.438,104 C60.406,104 62,102.406 62,100.438 L62,90.336 C62,85.098 68.332,82.474 72.036,86.178 L79.18,93.322 C80.572,94.714 82.826,94.714 84.216,93.322 L93.322,84.216 C94.714,82.826 94.714,80.57 93.322,79.18 L86.178,72.036 C82.474,68.332 85.098,62 90.336,62 L100.438,62 C102.406,62 104,60.406 104,58.438 L104,45.56 C104,43.594 102.406,42 100.438,42 L100.438,42 Z" id="Fill-152" fill="#FFFFFF" sketch:type="MSShapeGroup"></path>
            <path d="M100.438,42 L90.336,42 C85.098,42 82.474,35.666 86.178,31.962 L93.322,24.82 C94.714,23.428 94.714,21.174 93.322,19.782 L84.216,10.678 C82.826,9.286 80.572,9.286 79.18,10.678 L72.036,17.82 C68.332,21.524 62,18.902 62,13.664 L62,3.56 C62,1.594 60.406,0 58.438,0 L45.562,0 C43.594,0 42,1.594 42,3.56 L42,13.664 C42,18.902 35.668,21.524 31.964,17.82 L24.82,10.678 C23.428,9.286 21.174,9.286 19.784,10.678 L10.678,19.782 C9.286,21.174 9.286,23.428 10.678,24.82 L17.822,31.962 C21.526,35.666 18.902,42 13.664,42 L3.562,42 C1.594,42 0,43.594 0,45.56 L0,58.438 C0,60.406 1.594,62 3.562,62 L13.664,62 C18.902,62 21.526,68.332 17.822,72.036 L10.678,79.18 C9.286,80.57 9.286,82.826 10.678,84.216 L19.784,93.322 C21.174,94.714 23.428,94.714 24.82,93.322 L31.964,86.178 C35.668,82.474 42,85.098 42,90.336 L42,100.438 C42,102.406 43.594,104 45.562,104 L58.438,104 C60.406,104 62,102.406 62,100.438 L62,90.336 C62,85.098 68.332,82.474 72.036,86.178 L79.18,93.322 C80.572,94.714 82.826,94.714 84.216,93.322 L93.322,84.216 C94.714,82.826 94.714,80.57 93.322,79.18 L86.178,72.036 C82.474,68.332 85.098,62 90.336,62 L100.438,62 C102.406,62 104,60.406 104,58.438 L104,45.56 C104,43.594 102.406,42 100.438,42 L100.438,42 Z" id="Stroke-153" stroke="#82b9b4" stroke-width="4" stroke-linecap="round" stroke-linejoin="round" sketch:type="MSShapeGroup"></path>
            <path d="M68,52 C68,60.836 60.836,68 52,68 C43.164,68 36,60.836 36,52 C36,43.164 43.164,36 52,36 C60.836,36 68,43.164 68,52 L68,52 Z" id="Fill-154" fill="#f4f9f9" sketch:type="MSShapeGroup"></path>
            <path d="M68,52 C68,60.836 60.836,68 52,68 C43.164,68 36,60.836 36,52 C36,43.164 43.164,36 52,36 C60.836,36 68,43.164 68,52 L68,52 Z" id="Stroke-155" stroke="#82b9b4" stroke-width="4" stroke-linecap="round" stroke-linejoin="round" sketch:type="MSShapeGroup"></path>
        </g>
    </g>
</svg>
